<?xml version="1.0" encoding="utf-8"?>
<svg version="1.1" baseProfile="full" width="800" height="600" xmlns="http://www.w3.org/2000/svg">
<clipPath>
<rect x="0" y="0" width="800" height="600" fill="rgb(0,0,0)" />
</clipPath>
<text x="279" y="34" fill="rgb(0,0,0)">
Number of Elements Sorted Versus Time</text>
<line x1="158.858" y1="50" x2="158.858" y2="550" stroke="rgb(200,200,200)" />
<line x1="222.835" y1="50" x2="222.835" y2="550" stroke="rgb(200,200,200)" />
<line x1="286.811" y1="50" x2="286.811" y2="550" stroke="rgb(200,200,200)" />
<line x1="350.787" y1="50" x2="350.787" y2="550" stroke="rgb(200,200,200)" />
<line x1="414.764" y1="50" x2="414.764" y2="550" stroke="rgb(200,200,200)" />
<line x1="478.74" y1="50" x2="478.74" y2="550" stroke="rgb(200,200,200)" />
<line x1="542.717" y1="50" x2="542.717" y2="550" stroke="rgb(200,200,200)" />
<line x1="606.693" y1="50" x2="606.693" y2="550" stroke="rgb(200,200,200)" />
<line x1="670.669" y1="50" x2="670.669" y2="550" stroke="rgb(200,200,200)" />
<line x1="734.646" y1="50" x2="734.646" y2="550" stroke="rgb(200,200,200)" />
<line x1="100" y1="550" x2="750" y2="550" stroke="rgb(200,200,200)" />
<line x1="100" y1="491.962" x2="750" y2="491.962" stroke="rgb(200,200,200)" />
<line x1="100" y1="433.923" x2="750" y2="433.923" stroke="rgb(200,200,200)" />
<line x1="100" y1="375.885" x2="750" y2="375.885" stroke="rgb(200,200,200)" />
<line x1="100" y1="317.847" x2="750" y2="317.847" stroke="rgb(200,200,200)" />
<line x1="100" y1="259.808" x2="750" y2="259.808" stroke="rgb(200,200,200)" />
<line x1="100" y1="201.77" x2="750" y2="201.77" stroke="rgb(200,200,200)" />
<line x1="100" y1="143.732" x2="750" y2="143.732" stroke="rgb(200,200,200)" />
<line x1="100" y1="85.6935" x2="750" y2="85.6935" stroke="rgb(200,200,200)" />
<line x1="100" y1="550" x2="750" y2="550" stroke="rgb(0,0,0)" />
<line x1="107.677" y1="550" x2="107.677" y2="554" stroke="rgb(0,0,0)" />
<line x1="120.472" y1="550" x2="120.472" y2="554" stroke="rgb(0,0,0)" />
<line x1="133.268" y1="550" x2="133.268" y2="554" stroke="rgb(0,0,0)" />
<line x1="146.063" y1="550" x2="146.063" y2="554" stroke="rgb(0,0,0)" />
<text x="158" y="578" fill="rgb(0,0,0)">
200</text>
<line x1="158.858" y1="550" x2="158.858" y2="558" stroke="rgb(0,0,0)" />
<line x1="171.654" y1="550" x2="171.654" y2="554" stroke="rgb(0,0,0)" />
<line x1="184.449" y1="550" x2="184.449" y2="554" stroke="rgb(0,0,0)" />
<line x1="197.244" y1="550" x2="197.244" y2="554" stroke="rgb(0,0,0)" />
<line x1="210.039" y1="550" x2="210.039" y2="554" stroke="rgb(0,0,0)" />
<text x="222" y="578" fill="rgb(0,0,0)">
400</text>
<line x1="222.835" y1="550" x2="222.835" y2="558" stroke="rgb(0,0,0)" />
<line x1="235.63" y1="550" x2="235.63" y2="554" stroke="rgb(0,0,0)" />
<line x1="248.425" y1="550" x2="248.425" y2="554" stroke="rgb(0,0,0)" />
<line x1="261.22" y1="550" x2="261.22" y2="554" stroke="rgb(0,0,0)" />
<line x1="274.016" y1="550" x2="274.016" y2="554" stroke="rgb(0,0,0)" />
<text x="286" y="578" fill="rgb(0,0,0)">
600</text>
<line x1="286.811" y1="550" x2="286.811" y2="558" stroke="rgb(0,0,0)" />
<line x1="299.606" y1="550" x2="299.606" y2="554" stroke="rgb(0,0,0)" />
<line x1="312.402" y1="550" x2="312.402" y2="554" stroke="rgb(0,0,0)" />
<line x1="325.197" y1="550" x2="325.197" y2="554" stroke="rgb(0,0,0)" />
<line x1="337.992" y1="550" x2="337.992" y2="554" stroke="rgb(0,0,0)" />
<text x="350" y="578" fill="rgb(0,0,0)">
800</text>
<line x1="350.787" y1="550" x2="350.787" y2="558" stroke="rgb(0,0,0)" />
<line x1="363.583" y1="550" x2="363.583" y2="554" stroke="rgb(0,0,0)" />
<line x1="376.378" y1="550" x2="376.378" y2="554" stroke="rgb(0,0,0)" />
<line x1="389.173" y1="550" x2="389.173" y2="554" stroke="rgb(0,0,0)" />
<line x1="401.969" y1="550" x2="401.969" y2="554" stroke="rgb(0,0,0)" />
<text x="414" y="578" fill="rgb(0,0,0)">
1000</text>
<line x1="414.764" y1="550" x2="414.764" y2="558" stroke="rgb(0,0,0)" />
<line x1="427.559" y1="550" x2="427.559" y2="554" stroke="rgb(0,0,0)" />
<line x1="440.354" y1="550" x2="440.354" y2="554" stroke="rgb(0,0,0)" />
<line x1="453.15" y1="550" x2="453.15" y2="554" stroke="rgb(0,0,0)" />
<line x1="465.945" y1="550" x2="465.945" y2="554" stroke="rgb(0,0,0)" />
<text x="478" y="578" fill="rgb(0,0,0)">
1200</text>
<line x1="478.74" y1="550" x2="478.74" y2="558" stroke="rgb(0,0,0)" />
<line x1="491.535" y1="550" x2="491.535" y2="554" stroke="rgb(0,0,0)" />
<line x1="504.331" y1="550" x2="504.331" y2="554" stroke="rgb(0,0,0)" />
<line x1="517.126" y1="550" x2="517.126" y2="554" stroke="rgb(0,0,0)" />
<line x1="529.921" y1="550" x2="529.921" y2="554" stroke="rgb(0,0,0)" />
<text x="542" y="578" fill="rgb(0,0,0)">
1400</text>
<line x1="542.717" y1="550" x2="542.717" y2="558" stroke="rgb(0,0,0)" />
<line x1="555.512" y1="550" x2="555.512" y2="554" stroke="rgb(0,0,0)" />
<line x1="568.307" y1="550" x2="568.307" y2="554" stroke="rgb(0,0,0)" />
<line x1="581.102" y1="550" x2="581.102" y2="554" stroke="rgb(0,0,0)" />
<line x1="593.898" y1="550" x2="593.898" y2="554" stroke="rgb(0,0,0)" />
<text x="606" y="578" fill="rgb(0,0,0)">
1600</text>
<line x1="606.693" y1="550" x2="606.693" y2="558" stroke="rgb(0,0,0)" />
<line x1="619.488" y1="550" x2="619.488" y2="554" stroke="rgb(0,0,0)" />
<line x1="632.283" y1="550" x2="632.283" y2="554" stroke="rgb(0,0,0)" />
<line x1="645.079" y1="550" x2="645.079" y2="554" stroke="rgb(0,0,0)" />
<line x1="657.874" y1="550" x2="657.874" y2="554" stroke="rgb(0,0,0)" />
<text x="670" y="578" fill="rgb(0,0,0)">
1800</text>
<line x1="670.669" y1="550" x2="670.669" y2="558" stroke="rgb(0,0,0)" />
<line x1="683.465" y1="550" x2="683.465" y2="554" stroke="rgb(0,0,0)" />
<line x1="696.26" y1="550" x2="696.26" y2="554" stroke="rgb(0,0,0)" />
<line x1="709.055" y1="550" x2="709.055" y2="554" stroke="rgb(0,0,0)" />
<line x1="721.85" y1="550" x2="721.85" y2="554" stroke="rgb(0,0,0)" />
<text x="734" y="578" fill="rgb(0,0,0)">
2000</text>
<line x1="734.646" y1="550" x2="734.646" y2="558" stroke="rgb(0,0,0)" />
<line x1="747.441" y1="550" x2="747.441" y2="554" stroke="rgb(0,0,0)" />
<text x="409" y="594" fill="rgb(0,0,0)">
N</text>
<line x1="100" y1="50" x2="100" y2="550" stroke="rgb(0,0,0)" />
<text x="58" y="558" fill="rgb(0,0,0)">
0</text>
<line x1="100" y1="550" x2="92" y2="550" stroke="rgb(0,0,0)" />
<line x1="100" y1="538.392" x2="96" y2="538.392" stroke="rgb(0,0,0)" />
<line x1="100" y1="526.785" x2="96" y2="526.785" stroke="rgb(0,0,0)" />
<line x1="100" y1="515.177" x2="96" y2="515.177" stroke="rgb(0,0,0)" />
<line x1="100" y1="503.569" x2="96" y2="503.569" stroke="rgb(0,0,0)" />
<text x="46" y="499" fill="rgb(0,0,0)">
200</text>
<line x1="100" y1="491.962" x2="92" y2="491.962" stroke="rgb(0,0,0)" />
<line x1="100" y1="480.354" x2="96" y2="480.354" stroke="rgb(0,0,0)" />
<line x1="100" y1="468.746" x2="96" y2="468.746" stroke="rgb(0,0,0)" />
<line x1="100" y1="457.139" x2="96" y2="457.139" stroke="rgb(0,0,0)" />
<line x1="100" y1="445.531" x2="96" y2="445.531" stroke="rgb(0,0,0)" />
<text x="46" y="441" fill="rgb(0,0,0)">
400</text>
<line x1="100" y1="433.923" x2="92" y2="433.923" stroke="rgb(0,0,0)" />
<line x1="100" y1="422.316" x2="96" y2="422.316" stroke="rgb(0,0,0)" />
<line x1="100" y1="410.708" x2="96" y2="410.708" stroke="rgb(0,0,0)" />
<line x1="100" y1="399.1" x2="96" y2="399.1" stroke="rgb(0,0,0)" />
<line x1="100" y1="387.493" x2="96" y2="387.493" stroke="rgb(0,0,0)" />
<text x="46" y="383" fill="rgb(0,0,0)">
600</text>
<line x1="100" y1="375.885" x2="92" y2="375.885" stroke="rgb(0,0,0)" />
<line x1="100" y1="364.277" x2="96" y2="364.277" stroke="rgb(0,0,0)" />
<line x1="100" y1="352.67" x2="96" y2="352.67" stroke="rgb(0,0,0)" />
<line x1="100" y1="341.062" x2="96" y2="341.062" stroke="rgb(0,0,0)" />
<line x1="100" y1="329.454" x2="96" y2="329.454" stroke="rgb(0,0,0)" />
<text x="46" y="325" fill="rgb(0,0,0)">
800</text>
<line x1="100" y1="317.847" x2="92" y2="317.847" stroke="rgb(0,0,0)" />
<line x1="100" y1="306.239" x2="96" y2="306.239" stroke="rgb(0,0,0)" />
<line x1="100" y1="294.631" x2="96" y2="294.631" stroke="rgb(0,0,0)" />
<line x1="100" y1="283.024" x2="96" y2="283.024" stroke="rgb(0,0,0)" />
<line x1="100" y1="271.416" x2="96" y2="271.416" stroke="rgb(0,0,0)" />
<text x="42" y="267" fill="rgb(0,0,0)">
1000</text>
<line x1="100" y1="259.808" x2="92" y2="259.808" stroke="rgb(0,0,0)" />
<line x1="100" y1="248.201" x2="96" y2="248.201" stroke="rgb(0,0,0)" />
<line x1="100" y1="236.593" x2="96" y2="236.593" stroke="rgb(0,0,0)" />
<line x1="100" y1="224.985" x2="96" y2="224.985" stroke="rgb(0,0,0)" />
<line x1="100" y1="213.378" x2="96" y2="213.378" stroke="rgb(0,0,0)" />
<text x="42" y="209" fill="rgb(0,0,0)">
1200</text>
<line x1="100" y1="201.77" x2="92" y2="201.77" stroke="rgb(0,0,0)" />
<line x1="100" y1="190.163" x2="96" y2="190.163" stroke="rgb(0,0,0)" />
<line x1="100" y1="178.555" x2="96" y2="178.555" stroke="rgb(0,0,0)" />
<line x1="100" y1="166.947" x2="96" y2="166.947" stroke="rgb(0,0,0)" />
<line x1="100" y1="155.34" x2="96" y2="155.34" stroke="rgb(0,0,0)" />
<text x="42" y="151" fill="rgb(0,0,0)">
1400</text>
<line x1="100" y1="143.732" x2="92" y2="143.732" stroke="rgb(0,0,0)" />
<line x1="100" y1="132.124" x2="96" y2="132.124" stroke="rgb(0,0,0)" />
<line x1="100" y1="120.517" x2="96" y2="120.517" stroke="rgb(0,0,0)" />
<line x1="100" y1="108.909" x2="96" y2="108.909" stroke="rgb(0,0,0)" />
<line x1="100" y1="97.3012" x2="96" y2="97.3012" stroke="rgb(0,0,0)" />
<text x="42" y="93" fill="rgb(0,0,0)">
1600</text>
<line x1="100" y1="85.6935" x2="92" y2="85.6935" stroke="rgb(0,0,0)" />
<line x1="100" y1="74.0859" x2="96" y2="74.0859" stroke="rgb(0,0,0)" />
<line x1="100" y1="62.4782" x2="96" y2="62.4782" stroke="rgb(0,0,0)" />
<line x1="100" y1="50.8706" x2="96" y2="50.8706" stroke="rgb(0,0,0)" />
<text x="42" y="370" transform="rotate(-90,42,370)">Time (microseconds)</text>
<text x="120" y="66" fill="rgb(200,0,100)">
mergeSort</text>
<text x="120" y="98" fill="rgb(100,20,220)">
quickSort</text>
<text x="120" y="130" fill="rgb(50,220,10)">
insertionSort</text>
<text x="120" y="162" fill="rgb(200,209,140)">
hybridSort</text>
<text x="120" y="194" fill="rgb(20,100,100)">
std::sort</text>
<clipPath>
<rect x="100" y="50" width="650" height="500" fill="rgb(0,0,0)" />
</clipPath>
<line x1="100" y1="549.42" x2="105.118" y2="548.839" stroke="rgb(200,0,100)" />
<line x1="105.118" y1="548.839" x2="115.354" y2="548.259" stroke="rgb(200,0,100)" />
<line x1="115.354" y1="548.259" x2="135.827" y2="546.518" stroke="rgb(200,0,100)" />
<line x1="135.827" y1="546.518" x2="176.772" y2="542.165" stroke="rgb(200,0,100)" />
<line x1="176.772" y1="542.165" x2="258.661" y2="532.879" stroke="rgb(200,0,100)" />
<line x1="258.661" y1="532.879" x2="422.441" y2="514.016" stroke="rgb(200,0,100)" />
<line x1="422.441" y1="514.016" x2="750" y2="472.229" stroke="rgb(200,0,100)" />
<line x1="100" y1="549.71" x2="105.118" y2="549.71" stroke="rgb(100,20,220)" />
<line x1="105.118" y1="549.71" x2="115.354" y2="548.549" stroke="rgb(100,20,220)" />
<line x1="115.354" y1="548.549" x2="135.827" y2="547.098" stroke="rgb(100,20,220)" />
<line x1="135.827" y1="547.098" x2="176.772" y2="544.196" stroke="rgb(100,20,220)" />
<line x1="176.772" y1="544.196" x2="258.661" y2="535.781" stroke="rgb(100,20,220)" />
<line x1="258.661" y1="535.781" x2="422.441" y2="520.981" stroke="rgb(100,20,220)" />
<line x1="422.441" y1="520.981" x2="750" y2="484.417" stroke="rgb(100,20,220)" />
<line x1="100" y1="549.71" x2="105.118" y2="550" stroke="rgb(50,220,10)" />
<line x1="105.118" y1="550" x2="115.354" y2="549.42" stroke="rgb(50,220,10)" />
<line x1="115.354" y1="549.42" x2="135.827" y2="547.678" stroke="rgb(50,220,10)" />
<line x1="135.827" y1="547.678" x2="176.772" y2="541.584" stroke="rgb(50,220,10)" />
<line x1="176.772" y1="541.584" x2="258.661" y2="518.079" stroke="rgb(50,220,10)" />
<line x1="258.661" y1="518.079" x2="422.441" y2="418.543" stroke="rgb(50,220,10)" />
<line x1="422.441" y1="418.543" x2="750" y2="50" stroke="rgb(50,220,10)" />
<line x1="100" y1="550" x2="105.118" y2="549.71" stroke="rgb(200,209,140)" />
<line x1="105.118" y1="549.71" x2="115.354" y2="549.129" stroke="rgb(200,209,140)" />
<line x1="115.354" y1="549.129" x2="135.827" y2="547.969" stroke="rgb(200,209,140)" />
<line x1="135.827" y1="547.969" x2="176.772" y2="545.067" stroke="rgb(200,209,140)" />
<line x1="176.772" y1="545.067" x2="258.661" y2="538.683" stroke="rgb(200,209,140)" />
<line x1="258.661" y1="538.683" x2="422.441" y2="524.753" stroke="rgb(200,209,140)" />
<line x1="422.441" y1="524.753" x2="750" y2="493.993" stroke="rgb(200,209,140)" />
<line x1="100" y1="549.71" x2="105.118" y2="549.42" stroke="rgb(20,100,100)" />
<line x1="105.118" y1="549.42" x2="115.354" y2="548.839" stroke="rgb(20,100,100)" />
<line x1="115.354" y1="548.839" x2="135.827" y2="547.098" stroke="rgb(20,100,100)" />
<line x1="135.827" y1="547.098" x2="176.772" y2="543.035" stroke="rgb(20,100,100)" />
<line x1="176.772" y1="543.035" x2="258.661" y2="533.459" stroke="rgb(20,100,100)" />
<line x1="258.661" y1="533.459" x2="422.441" y2="515.177" stroke="rgb(20,100,100)" />
<line x1="422.441" y1="515.177" x2="750" y2="465.264" stroke="rgb(20,100,100)" />
</svg>

