<?xml version="1.0" encoding="utf-8"?>
<svg version="1.1" baseProfile="full" width="800" height="600" xmlns="http://www.w3.org/2000/svg">
<clipPath>
<rect x="0" y="0" width="800" height="600" fill="rgb(0,0,0)" />
</clipPath>
<text x="279" y="34" fill="rgb(0,0,0)">
Number of Elements Sorted Versus Time</text>
<line x1="158.858" y1="50" x2="158.858" y2="550" stroke="rgb(200,200,200)" />
<line x1="222.835" y1="50" x2="222.835" y2="550" stroke="rgb(200,200,200)" />
<line x1="286.811" y1="50" x2="286.811" y2="550" stroke="rgb(200,200,200)" />
<line x1="350.787" y1="50" x2="350.787" y2="550" stroke="rgb(200,200,200)" />
<line x1="414.764" y1="50" x2="414.764" y2="550" stroke="rgb(200,200,200)" />
<line x1="478.74" y1="50" x2="478.74" y2="550" stroke="rgb(200,200,200)" />
<line x1="542.717" y1="50" x2="542.717" y2="550" stroke="rgb(200,200,200)" />
<line x1="606.693" y1="50" x2="606.693" y2="550" stroke="rgb(200,200,200)" />
<line x1="670.669" y1="50" x2="670.669" y2="550" stroke="rgb(200,200,200)" />
<line x1="734.646" y1="50" x2="734.646" y2="550" stroke="rgb(200,200,200)" />
<line x1="100" y1="550" x2="750" y2="550" stroke="rgb(200,200,200)" />
<line x1="100" y1="495.858" x2="750" y2="495.858" stroke="rgb(200,200,200)" />
<line x1="100" y1="441.716" x2="750" y2="441.716" stroke="rgb(200,200,200)" />
<line x1="100" y1="387.574" x2="750" y2="387.574" stroke="rgb(200,200,200)" />
<line x1="100" y1="333.433" x2="750" y2="333.433" stroke="rgb(200,200,200)" />
<line x1="100" y1="279.291" x2="750" y2="279.291" stroke="rgb(200,200,200)" />
<line x1="100" y1="225.149" x2="750" y2="225.149" stroke="rgb(200,200,200)" />
<line x1="100" y1="171.007" x2="750" y2="171.007" stroke="rgb(200,200,200)" />
<line x1="100" y1="116.865" x2="750" y2="116.865" stroke="rgb(200,200,200)" />
<line x1="100" y1="62.7234" x2="750" y2="62.7234" stroke="rgb(200,200,200)" />
<line x1="100" y1="550" x2="750" y2="550" stroke="rgb(0,0,0)" />
<line x1="107.677" y1="550" x2="107.677" y2="554" stroke="rgb(0,0,0)" />
<line x1="120.472" y1="550" x2="120.472" y2="554" stroke="rgb(0,0,0)" />
<line x1="133.268" y1="550" x2="133.268" y2="554" stroke="rgb(0,0,0)" />
<line x1="146.063" y1="550" x2="146.063" y2="554" stroke="rgb(0,0,0)" />
<text x="158" y="578" fill="rgb(0,0,0)">
200</text>
<line x1="158.858" y1="550" x2="158.858" y2="558" stroke="rgb(0,0,0)" />
<line x1="171.654" y1="550" x2="171.654" y2="554" stroke="rgb(0,0,0)" />
<line x1="184.449" y1="550" x2="184.449" y2="554" stroke="rgb(0,0,0)" />
<line x1="197.244" y1="550" x2="197.244" y2="554" stroke="rgb(0,0,0)" />
<line x1="210.039" y1="550" x2="210.039" y2="554" stroke="rgb(0,0,0)" />
<text x="222" y="578" fill="rgb(0,0,0)">
400</text>
<line x1="222.835" y1="550" x2="222.835" y2="558" stroke="rgb(0,0,0)" />
<line x1="235.63" y1="550" x2="235.63" y2="554" stroke="rgb(0,0,0)" />
<line x1="248.425" y1="550" x2="248.425" y2="554" stroke="rgb(0,0,0)" />
<line x1="261.22" y1="550" x2="261.22" y2="554" stroke="rgb(0,0,0)" />
<line x1="274.016" y1="550" x2="274.016" y2="554" stroke="rgb(0,0,0)" />
<text x="286" y="578" fill="rgb(0,0,0)">
600</text>
<line x1="286.811" y1="550" x2="286.811" y2="558" stroke="rgb(0,0,0)" />
<line x1="299.606" y1="550" x2="299.606" y2="554" stroke="rgb(0,0,0)" />
<line x1="312.402" y1="550" x2="312.402" y2="554" stroke="rgb(0,0,0)" />
<line x1="325.197" y1="550" x2="325.197" y2="554" stroke="rgb(0,0,0)" />
<line x1="337.992" y1="550" x2="337.992" y2="554" stroke="rgb(0,0,0)" />
<text x="350" y="578" fill="rgb(0,0,0)">
800</text>
<line x1="350.787" y1="550" x2="350.787" y2="558" stroke="rgb(0,0,0)" />
<line x1="363.583" y1="550" x2="363.583" y2="554" stroke="rgb(0,0,0)" />
<line x1="376.378" y1="550" x2="376.378" y2="554" stroke="rgb(0,0,0)" />
<line x1="389.173" y1="550" x2="389.173" y2="554" stroke="rgb(0,0,0)" />
<line x1="401.969" y1="550" x2="401.969" y2="554" stroke="rgb(0,0,0)" />
<text x="414" y="578" fill="rgb(0,0,0)">
1000</text>
<line x1="414.764" y1="550" x2="414.764" y2="558" stroke="rgb(0,0,0)" />
<line x1="427.559" y1="550" x2="427.559" y2="554" stroke="rgb(0,0,0)" />
<line x1="440.354" y1="550" x2="440.354" y2="554" stroke="rgb(0,0,0)" />
<line x1="453.15" y1="550" x2="453.15" y2="554" stroke="rgb(0,0,0)" />
<line x1="465.945" y1="550" x2="465.945" y2="554" stroke="rgb(0,0,0)" />
<text x="478" y="578" fill="rgb(0,0,0)">
1200</text>
<line x1="478.74" y1="550" x2="478.74" y2="558" stroke="rgb(0,0,0)" />
<line x1="491.535" y1="550" x2="491.535" y2="554" stroke="rgb(0,0,0)" />
<line x1="504.331" y1="550" x2="504.331" y2="554" stroke="rgb(0,0,0)" />
<line x1="517.126" y1="550" x2="517.126" y2="554" stroke="rgb(0,0,0)" />
<line x1="529.921" y1="550" x2="529.921" y2="554" stroke="rgb(0,0,0)" />
<text x="542" y="578" fill="rgb(0,0,0)">
1400</text>
<line x1="542.717" y1="550" x2="542.717" y2="558" stroke="rgb(0,0,0)" />
<line x1="555.512" y1="550" x2="555.512" y2="554" stroke="rgb(0,0,0)" />
<line x1="568.307" y1="550" x2="568.307" y2="554" stroke="rgb(0,0,0)" />
<line x1="581.102" y1="550" x2="581.102" y2="554" stroke="rgb(0,0,0)" />
<line x1="593.898" y1="550" x2="593.898" y2="554" stroke="rgb(0,0,0)" />
<text x="606" y="578" fill="rgb(0,0,0)">
1600</text>
<line x1="606.693" y1="550" x2="606.693" y2="558" stroke="rgb(0,0,0)" />
<line x1="619.488" y1="550" x2="619.488" y2="554" stroke="rgb(0,0,0)" />
<line x1="632.283" y1="550" x2="632.283" y2="554" stroke="rgb(0,0,0)" />
<line x1="645.079" y1="550" x2="645.079" y2="554" stroke="rgb(0,0,0)" />
<line x1="657.874" y1="550" x2="657.874" y2="554" stroke="rgb(0,0,0)" />
<text x="670" y="578" fill="rgb(0,0,0)">
1800</text>
<line x1="670.669" y1="550" x2="670.669" y2="558" stroke="rgb(0,0,0)" />
<line x1="683.465" y1="550" x2="683.465" y2="554" stroke="rgb(0,0,0)" />
<line x1="696.26" y1="550" x2="696.26" y2="554" stroke="rgb(0,0,0)" />
<line x1="709.055" y1="550" x2="709.055" y2="554" stroke="rgb(0,0,0)" />
<line x1="721.85" y1="550" x2="721.85" y2="554" stroke="rgb(0,0,0)" />
<text x="734" y="578" fill="rgb(0,0,0)">
2000</text>
<line x1="734.646" y1="550" x2="734.646" y2="558" stroke="rgb(0,0,0)" />
<line x1="747.441" y1="550" x2="747.441" y2="554" stroke="rgb(0,0,0)" />
<text x="409" y="594" fill="rgb(0,0,0)">
N</text>
<line x1="100" y1="50" x2="100" y2="550" stroke="rgb(0,0,0)" />
<text x="58" y="558" fill="rgb(0,0,0)">
0</text>
<line x1="100" y1="550" x2="92" y2="550" stroke="rgb(0,0,0)" />
<line x1="100" y1="539.172" x2="96" y2="539.172" stroke="rgb(0,0,0)" />
<line x1="100" y1="528.343" x2="96" y2="528.343" stroke="rgb(0,0,0)" />
<line x1="100" y1="517.515" x2="96" y2="517.515" stroke="rgb(0,0,0)" />
<line x1="100" y1="506.687" x2="96" y2="506.687" stroke="rgb(0,0,0)" />
<text x="46" y="503" fill="rgb(0,0,0)">
200</text>
<line x1="100" y1="495.858" x2="92" y2="495.858" stroke="rgb(0,0,0)" />
<line x1="100" y1="485.03" x2="96" y2="485.03" stroke="rgb(0,0,0)" />
<line x1="100" y1="474.201" x2="96" y2="474.201" stroke="rgb(0,0,0)" />
<line x1="100" y1="463.373" x2="96" y2="463.373" stroke="rgb(0,0,0)" />
<line x1="100" y1="452.545" x2="96" y2="452.545" stroke="rgb(0,0,0)" />
<text x="46" y="449" fill="rgb(0,0,0)">
400</text>
<line x1="100" y1="441.716" x2="92" y2="441.716" stroke="rgb(0,0,0)" />
<line x1="100" y1="430.888" x2="96" y2="430.888" stroke="rgb(0,0,0)" />
<line x1="100" y1="420.06" x2="96" y2="420.06" stroke="rgb(0,0,0)" />
<line x1="100" y1="409.231" x2="96" y2="409.231" stroke="rgb(0,0,0)" />
<line x1="100" y1="398.403" x2="96" y2="398.403" stroke="rgb(0,0,0)" />
<text x="46" y="395" fill="rgb(0,0,0)">
600</text>
<line x1="100" y1="387.574" x2="92" y2="387.574" stroke="rgb(0,0,0)" />
<line x1="100" y1="376.746" x2="96" y2="376.746" stroke="rgb(0,0,0)" />
<line x1="100" y1="365.918" x2="96" y2="365.918" stroke="rgb(0,0,0)" />
<line x1="100" y1="355.089" x2="96" y2="355.089" stroke="rgb(0,0,0)" />
<line x1="100" y1="344.261" x2="96" y2="344.261" stroke="rgb(0,0,0)" />
<text x="46" y="341" fill="rgb(0,0,0)">
800</text>
<line x1="100" y1="333.433" x2="92" y2="333.433" stroke="rgb(0,0,0)" />
<line x1="100" y1="322.604" x2="96" y2="322.604" stroke="rgb(0,0,0)" />
<line x1="100" y1="311.776" x2="96" y2="311.776" stroke="rgb(0,0,0)" />
<line x1="100" y1="300.948" x2="96" y2="300.948" stroke="rgb(0,0,0)" />
<line x1="100" y1="290.119" x2="96" y2="290.119" stroke="rgb(0,0,0)" />
<text x="42" y="287" fill="rgb(0,0,0)">
1000</text>
<line x1="100" y1="279.291" x2="92" y2="279.291" stroke="rgb(0,0,0)" />
<line x1="100" y1="268.462" x2="96" y2="268.462" stroke="rgb(0,0,0)" />
<line x1="100" y1="257.634" x2="96" y2="257.634" stroke="rgb(0,0,0)" />
<line x1="100" y1="246.806" x2="96" y2="246.806" stroke="rgb(0,0,0)" />
<line x1="100" y1="235.977" x2="96" y2="235.977" stroke="rgb(0,0,0)" />
<text x="42" y="233" fill="rgb(0,0,0)">
1200</text>
<line x1="100" y1="225.149" x2="92" y2="225.149" stroke="rgb(0,0,0)" />
<line x1="100" y1="214.321" x2="96" y2="214.321" stroke="rgb(0,0,0)" />
<line x1="100" y1="203.492" x2="96" y2="203.492" stroke="rgb(0,0,0)" />
<line x1="100" y1="192.664" x2="96" y2="192.664" stroke="rgb(0,0,0)" />
<line x1="100" y1="181.835" x2="96" y2="181.835" stroke="rgb(0,0,0)" />
<text x="42" y="179" fill="rgb(0,0,0)">
1400</text>
<line x1="100" y1="171.007" x2="92" y2="171.007" stroke="rgb(0,0,0)" />
<line x1="100" y1="160.179" x2="96" y2="160.179" stroke="rgb(0,0,0)" />
<line x1="100" y1="149.35" x2="96" y2="149.35" stroke="rgb(0,0,0)" />
<line x1="100" y1="138.522" x2="96" y2="138.522" stroke="rgb(0,0,0)" />
<line x1="100" y1="127.694" x2="96" y2="127.694" stroke="rgb(0,0,0)" />
<text x="42" y="124" fill="rgb(0,0,0)">
1600</text>
<line x1="100" y1="116.865" x2="92" y2="116.865" stroke="rgb(0,0,0)" />
<line x1="100" y1="106.037" x2="96" y2="106.037" stroke="rgb(0,0,0)" />
<line x1="100" y1="95.2085" x2="96" y2="95.2085" stroke="rgb(0,0,0)" />
<line x1="100" y1="84.3801" x2="96" y2="84.3801" stroke="rgb(0,0,0)" />
<line x1="100" y1="73.5517" x2="96" y2="73.5517" stroke="rgb(0,0,0)" />
<text x="42" y="70" fill="rgb(0,0,0)">
1800</text>
<line x1="100" y1="62.7234" x2="92" y2="62.7234" stroke="rgb(0,0,0)" />
<line x1="100" y1="51.895" x2="96" y2="51.895" stroke="rgb(0,0,0)" />
<text x="42" y="370" transform="rotate(-90,42,370)">Time (microseconds)</text>
<text x="120" y="66" fill="rgb(200,0,100)">
mergeSort</text>
<text x="120" y="98" fill="rgb(100,20,220)">
quickSort</text>
<text x="120" y="130" fill="rgb(50,220,10)">
insertionSort</text>
<text x="120" y="162" fill="rgb(200,209,140)">
hybridSort</text>
<text x="120" y="194" fill="rgb(20,100,100)">
std::sort</text>
<clipPath>
<rect x="100" y="50" width="650" height="500" fill="rgb(0,0,0)" />
</clipPath>
<line x1="100" y1="549.459" x2="105.118" y2="549.188" stroke="rgb(200,0,100)" />
<line x1="105.118" y1="549.188" x2="115.354" y2="548.105" stroke="rgb(200,0,100)" />
<line x1="115.354" y1="548.105" x2="135.827" y2="546.481" stroke="rgb(200,0,100)" />
<line x1="135.827" y1="546.481" x2="176.772" y2="542.149" stroke="rgb(200,0,100)" />
<line x1="176.772" y1="542.149" x2="258.661" y2="533.216" stroke="rgb(200,0,100)" />
<line x1="258.661" y1="533.216" x2="422.441" y2="515.078" stroke="rgb(200,0,100)" />
<line x1="422.441" y1="515.078" x2="750" y2="473.931" stroke="rgb(200,0,100)" />
<line x1="100" y1="549.729" x2="105.118" y2="549.459" stroke="rgb(100,20,220)" />
<line x1="105.118" y1="549.459" x2="115.354" y2="548.646" stroke="rgb(100,20,220)" />
<line x1="115.354" y1="548.646" x2="135.827" y2="547.293" stroke="rgb(100,20,220)" />
<line x1="135.827" y1="547.293" x2="176.772" y2="544.044" stroke="rgb(100,20,220)" />
<line x1="176.772" y1="544.044" x2="258.661" y2="537.277" stroke="rgb(100,20,220)" />
<line x1="258.661" y1="537.277" x2="422.441" y2="520.222" stroke="rgb(100,20,220)" />
<line x1="422.441" y1="520.222" x2="750" y2="485.3" stroke="rgb(100,20,220)" />
<line x1="100" y1="550" x2="105.118" y2="549.729" stroke="rgb(50,220,10)" />
<line x1="105.118" y1="549.729" x2="115.354" y2="549.459" stroke="rgb(50,220,10)" />
<line x1="115.354" y1="549.459" x2="135.827" y2="547.293" stroke="rgb(50,220,10)" />
<line x1="135.827" y1="547.293" x2="176.772" y2="541.608" stroke="rgb(50,220,10)" />
<line x1="176.772" y1="541.608" x2="258.661" y2="520.763" stroke="rgb(50,220,10)" />
<line x1="258.661" y1="520.763" x2="422.441" y2="428.452" stroke="rgb(50,220,10)" />
<line x1="422.441" y1="428.452" x2="750" y2="50" stroke="rgb(50,220,10)" />
<line x1="100" y1="549.729" x2="105.118" y2="549.729" stroke="rgb(200,209,140)" />
<line x1="105.118" y1="549.729" x2="115.354" y2="549.188" stroke="rgb(200,209,140)" />
<line x1="115.354" y1="549.188" x2="135.827" y2="547.834" stroke="rgb(200,209,140)" />
<line x1="135.827" y1="547.834" x2="176.772" y2="544.857" stroke="rgb(200,209,140)" />
<line x1="176.772" y1="544.857" x2="258.661" y2="538.63" stroke="rgb(200,209,140)" />
<line x1="258.661" y1="538.63" x2="422.441" y2="525.095" stroke="rgb(200,209,140)" />
<line x1="422.441" y1="525.095" x2="750" y2="494.234" stroke="rgb(200,209,140)" />
<line x1="100" y1="549.729" x2="105.118" y2="549.459" stroke="rgb(20,100,100)" />
<line x1="105.118" y1="549.459" x2="115.354" y2="548.646" stroke="rgb(20,100,100)" />
<line x1="115.354" y1="548.646" x2="135.827" y2="547.022" stroke="rgb(20,100,100)" />
<line x1="135.827" y1="547.022" x2="176.772" y2="542.962" stroke="rgb(20,100,100)" />
<line x1="176.772" y1="542.962" x2="258.661" y2="534.299" stroke="rgb(20,100,100)" />
<line x1="258.661" y1="534.299" x2="422.441" y2="515.62" stroke="rgb(20,100,100)" />
<line x1="422.441" y1="515.62" x2="750" y2="471.494" stroke="rgb(20,100,100)" />
</svg>

